# xmcd
#
# Track frame offsets:
#	150
#	14261
#	28272
#	41820
#	55441
#	69215
#	82898
#	97015
#	111097
#	125511
#	140004
#	152517
#	165552
#	179660
#	192732
#	206626
#	219539
#	233152
#	246368
#	260930
#	274033
#	288462
#	302207
#	315103
#	328296
#
# Disc length: 4553 seconds
#
# Revision: 0
# Processed by: cddbd v1.5.2PL0 Copyright (c) Steve Scherf et al.
# Submitted via: EasyCDDAExtractor 9.1.3.1
#
DISCID=8011c719
DTITLE=Various Artist - Paramout Old Time Recordings - Disc A
DYEAR=2006
DGENRE=Country
TTITLE0=Fruit Jar Guzzlers - C and O Whistle
TTITLE1=Fruit Jar Guzzlers - Fox In The Mountains
TTITLE2=Fruit Jar Guzzlers - Old Joe Clark
TTITLE3=Fruit Jar Guzzlers - Kentucky Bootleggers
TTITLE4=Fruit Jar Guzzlers - Cackling Hen
TTITLE5=Wilmer Watts and The Lonely Eagles - Cotton Mill Blues
TTITLE6=Wilmer Watts and The Lonely Eagles - Say Darling Won't You Love Me
TTITLE7=Willmer Watts and The Lonely Eagles - Banjo Sam
TTITLE8=Wilmer Watts and The Lonely Eagles - Knocking Down Casey Jones
TTITLE9=Wilmer Watts and The Lonely Eagles - Been On The Job Too Long
TTITLE10=Dixie Crackers - The Old Cow Bell
TTITLE11=Dixie Crackers - Bile Them Cabbage Down
TTITLE12=Arthur Tanner - Alabama Jubilee
TTITLE13=Arthur Tanner - Trail Blazer's Favourite
TTITLE14=Arthur Tanner - Chicken's Don't Roost Too High For Me
TTITLE15=Arthur Tanner - Soldier's Joy
TTITLE16=Arthur Tanner - Show Me The Way To Go Home
TTITLE17=Arthur Tanner - Whoa Mule Whoa
TTITLE18=Arthur Tanner - When I Was Single My Pockets Did Jingle
TTITLE19=Arthur Tanner - Little Log Cabin In The Lane
TTITLE20=Arthur Tanner - The Knoxville Girl
TTITLE21=Red Brush Rowdies - Hatfield McCoy Feud
TTITLE22=Red Brush Rowdies - Tuck Me In
TTITLE23=Red Brush Rowdies - Harbour Of Home Sweet Home
TTITLE24=Red Brush Rowdies - Midnight Serenade
EXTD=
EXTT0=
EXTT1=
EXTT2=
EXTT3=
EXTT4=
EXTT5=
EXTT6=
EXTT7=
EXTT8=
EXTT9=
EXTT10=
EXTT11=
EXTT12=
EXTT13=
EXTT14=
EXTT15=
EXTT16=
EXTT17=
EXTT18=
EXTT19=
EXTT20=
EXTT21=
EXTT22=
EXTT23=
EXTT24=
PLAYORDER=
